<?xml version="1.0" encoding="utf-8"?>
<!-- Generator: Adobe Illustrator 24.0.0, SVG Export Plug-In . SVG Version: 6.00 Build 0)  -->
<svg version="1.1" id="Layer_1" xmlns="http://www.w3.org/2000/svg" xmlns:xlink="http://www.w3.org/1999/xlink" x="0px" y="0px"
	 viewBox="0 0 1200 300" style="enable-background:new 0 0 1200 300;" xml:space="preserve">
<style type="text/css">
	.st0{fill:#2A0F6D;}
	.st1{fill:#2B0F6F;}
</style>
<g>
	<path class="st0" d="M370.21,127.86v86.68c0,5.81-3.51,9.32-10.54,10.54h-0.75c-5.95,0-9.61-3.69-10.97-11.08V76.56
		c0.86-7.96,4.23-11.94,10.11-11.94h1.61c5.95,0,9.93,4.23,11.94,12.69l49.36,110.35c0.65-2.51,11.47-27.71,32.48-75.61l20.22-43.56
		c2.44-2.58,5.09-3.87,7.96-3.87h1.61c5.88,0,9.25,3.98,10.11,11.94v137.45c-1.36,7.39-5.02,11.08-10.97,11.08h-0.75
		c-7.03-1.22-10.54-4.73-10.54-10.54v-86.79c-26.67,60.37-40.62,91.52-41.84,93.46c-2.94,2.58-5.81,3.87-8.6,3.87
		c-6.31,0-11.51-6.38-15.59-19.14L370.21,127.86z"/>
	<path class="st0" d="M600.14,212.83c-8.75,8.17-20.29,12.26-34.63,12.26h-3.12c-19.79,0-36.28-9.89-49.47-29.68
		c-4.8-9.61-7.21-19.25-7.21-28.93c0-21.65,10.61-38.82,31.83-51.52c9.03-4.23,17.85-6.35,26.46-6.35
		c22.01,0,39.43,10.75,52.27,32.27c3.94,8.82,5.92,17.89,5.92,27.21v46.57c0,5.74-3.51,9.21-10.54,10.43h-0.75
		c-4.88,0-8.5-2.87-10.86-8.6v-1.18L600.14,212.83z M527.87,166.04v1.18c0,14.7,7.38,25.74,22.16,33.13
		c4.59,1.72,8.71,2.58,12.37,2.58h3.12c12.19,0,22.26-6.13,30.22-18.39c2.87-5.73,4.3-11.22,4.3-16.45v-1.61
		c0-14.12-6.99-24.95-20.97-32.48c-4.8-2.15-9.82-3.23-15.06-3.23h-0.43c-14.84,0-26.03,7.74-33.56,23.23
		C528.58,158.73,527.87,162.75,527.87,166.04z"/>
	<path class="st0" d="M697.35,108.29c15.06,0,28.82,5.74,41.3,17.21c1.22,2.22,1.83,4.27,1.83,6.13v0.75
		c-1.29,7.03-4.91,10.54-10.86,10.54h-0.43c-2.65,0-7.53-2.69-14.63-8.07c-5.31-2.72-10.65-4.09-16.03-4.09h-2.37
		c-14.27,0-25.1,7.53-32.48,22.59c-1.72,5.09-2.58,9.68-2.58,13.77c0,14.56,7.56,25.63,22.69,33.23c4.45,1.72,9.25,2.58,14.41,2.58
		c8.46,0,17.06-3.69,25.81-11.08l4.41-0.97h1.61c5.74,0,9.21,3.51,10.43,10.54v0.65c0,7.03-9.39,14.13-28.18,21.29
		c-6.17,1.15-10.76,1.72-13.77,1.72h-3.23c-15.77,0-30.4-7.38-43.88-22.15c-8.32-11.69-12.48-23.77-12.48-36.25
		c0-19,8.39-34.92,25.17-47.75C674.8,111.84,685.88,108.29,697.35,108.29z"/>
	<path class="st0" d="M765.63,64.62h1.83c6.81,1.51,10.22,4.91,10.22,10.22v45.17c8.82-8.46,21.04-12.69,36.67-12.69
		c15.13,0,28.86,5.74,41.19,17.21c11.76,12.33,17.64,26.21,17.64,41.62c0,22.09-10.43,39.44-31.3,52.05
		c-9.11,4.59-17.89,6.88-26.35,6.88h-3.23c-15.92,0-30.69-7.42-44.31-22.26c-8.39-11.19-12.58-24.34-12.58-39.47V74.84
		C755.41,69.54,758.82,66.13,765.63,64.62z M777.67,164.97v2.04c0,15.2,7.99,26.53,23.98,33.98c4.16,1.22,7.96,1.83,11.4,1.83h2.47
		c14.77,0,25.95-7.96,33.56-23.88c1.22-4.8,1.83-8.5,1.83-11.08v-2.47c0-15.13-8.1-26.46-24.31-33.98
		c-4.95-1.22-8.78-1.83-11.51-1.83h-1.61c-14.77,0-25.96,7.85-33.56,23.55C778.43,157.51,777.67,161.46,777.67,164.97z"/>
	<path class="st0" d="M941.78,108.4c22.44,0,39.86,10.65,52.27,31.94c4.3,8.39,6.45,17.46,6.45,27.21v2.37
		c-1.29,7.31-4.91,10.97-10.86,10.97h-80.55c2.08,7.1,7.92,13.23,17.53,18.39c5.66,2.15,10.97,3.23,15.92,3.23
		c5.74,0,12.62-2.01,20.65-6.02h3.44c6.74,1.29,10.11,4.81,10.11,10.54v1.18c0,8.46-10.65,14.09-31.94,16.89h-3.01
		c-20.94,0-37.71-9.79-50.33-29.36c-5.09-9.25-7.64-18.93-7.64-29.04c0-21.36,10.07-38.36,30.22-50.98
		C923.85,110.83,933.1,108.4,941.78,108.4z M907.15,158.73h70.44c0-2.65-2.98-8-8.93-16.03c-8.03-7.6-15.92-11.4-23.66-11.4h-4.41
		c-11.76,0-21.44,5.81-29.04,17.42C908.91,153.32,907.44,156.65,907.15,158.73z"/>
	<path class="st0" d="M1031.89,107.75c7.03,1.79,10.54,5.16,10.54,10.11v1.72c8.89-7.89,20.47-11.83,34.74-11.83
		c7.67,0,15.99,1.94,24.95,5.81c3.08,3.16,4.62,6.2,4.62,9.14v0.75c-1.22,7.03-4.84,10.54-10.86,10.54h-0.97
		c-7.39-2.37-12.76-3.55-16.13-3.55h-2.37c-14.48,0-25.1,7.53-31.83,22.59c-1.44,3.95-2.15,8.53-2.15,13.77v47.75
		c0,5.81-3.59,9.32-10.76,10.54h-0.65c-5.88,0-9.5-3.66-10.86-10.97v-94C1021.03,111.88,1024.94,107.75,1031.89,107.75z"/>
</g>
<path class="st1" d="M111.21,190.85L111.21,190.85c-12.37-4.77-18.53-18.66-13.77-31.03l37.44-97.17
	c4.77-12.37,18.66-18.53,31.03-13.77l0,0c12.37,4.77,18.53,18.66,13.77,31.03l-37.44,97.17
	C137.47,189.46,123.58,195.62,111.21,190.85z"/>
<path class="st1" d="M155.08,254.28L155.08,254.28c-12.37-4.77-18.53-18.66-13.77-31.03l63.62-165.13
	c4.77-12.37,18.66-18.53,31.03-13.77l0,0c12.37,4.77,18.53,18.66,13.77,31.03l-63.62,165.13
	C181.34,252.88,167.45,259.04,155.08,254.28z"/>
<path class="st1" d="M221.55,256.47L221.55,256.47c-12.37-4.77-18.53-18.66-13.77-31.03L271.4,60.32
	c4.77-12.37,18.66-18.53,31.03-13.77l0,0c12.37,4.77,18.53,18.66,13.77,31.03l-63.62,165.13
	C247.81,255.08,233.92,261.24,221.55,256.47z"/>
</svg>
