<?xml version="1.0" encoding="utf-8"?>
<!-- Generator: Adobe Illustrator 24.0.0, SVG Export Plug-In . SVG Version: 6.00 Build 0)  -->
<svg version="1.1" id="Layer_1" xmlns="http://www.w3.org/2000/svg" xmlns:xlink="http://www.w3.org/1999/xlink" x="0px" y="0px"
	 viewBox="0 0 1200 300" style="enable-background:new 0 0 1200 300;" xml:space="preserve">
<style type="text/css">
	.st0{fill:#FFFFFF;}
</style>
<g>
	<path class="st0" d="M370.2,127.9v86.7c0,5.8-3.5,9.3-10.5,10.5h-0.8c-6,0-9.6-3.7-11-11.1V76.6c0.9-8,4.2-11.9,10.1-11.9h1.6
		c6,0,9.9,4.2,11.9,12.7L421,187.7c0.6-2.5,11.5-27.7,32.5-75.6l20.2-43.6c2.4-2.6,5.1-3.9,8-3.9h1.6c5.9,0,9.3,4,10.1,11.9V214
		c-1.4,7.4-5,11.1-11,11.1h-0.8c-7-1.2-10.5-4.7-10.5-10.5v-86.8c-26.7,60.4-40.6,91.5-41.8,93.5c-2.9,2.6-5.8,3.9-8.6,3.9
		c-6.3,0-11.5-6.4-15.6-19.1L370.2,127.9z"/>
	<path class="st0" d="M600.1,212.8c-8.8,8.2-20.3,12.3-34.6,12.3h-3.1c-19.8,0-36.3-9.9-49.5-29.7c-4.8-9.6-7.2-19.3-7.2-28.9
		c0-21.6,10.6-38.8,31.8-51.5c9-4.2,17.8-6.3,26.5-6.3c22,0,39.4,10.8,52.3,32.3c3.9,8.8,5.9,17.9,5.9,27.2v46.6
		c0,5.7-3.5,9.2-10.5,10.4h-0.8c-4.9,0-8.5-2.9-10.9-8.6v-1.2L600.1,212.8z M527.9,166v1.2c0,14.7,7.4,25.7,22.2,33.1
		c4.6,1.7,8.7,2.6,12.4,2.6h3.1c12.2,0,22.3-6.1,30.2-18.4c2.9-5.7,4.3-11.2,4.3-16.4v-1.6c0-14.1-7-24.9-21-32.5
		c-4.8-2.1-9.8-3.2-15.1-3.2h-0.4c-14.8,0-26,7.7-33.6,23.2C528.6,158.7,527.9,162.8,527.9,166z"/>
	<path class="st0" d="M697.3,108.3c15.1,0,28.8,5.7,41.3,17.2c1.2,2.2,1.8,4.3,1.8,6.1v0.8c-1.3,7-4.9,10.5-10.9,10.5h-0.4
		c-2.7,0-7.5-2.7-14.6-8.1c-5.3-2.7-10.7-4.1-16-4.1h-2.4c-14.3,0-25.1,7.5-32.5,22.6c-1.7,5.1-2.6,9.7-2.6,13.8
		c0,14.6,7.6,25.6,22.7,33.2c4.5,1.7,9.3,2.6,14.4,2.6c8.5,0,17.1-3.7,25.8-11.1l4.4-1h1.6c5.7,0,9.2,3.5,10.4,10.5v0.6
		c0,7-9.4,14.1-28.2,21.3c-6.2,1.1-10.8,1.7-13.8,1.7h-3.2c-15.8,0-30.4-7.4-43.9-22.1c-8.3-11.7-12.5-23.8-12.5-36.3
		c0-19,8.4-34.9,25.2-47.8C674.8,111.8,685.9,108.3,697.3,108.3z"/>
	<path class="st0" d="M765.6,64.6h1.8c6.8,1.5,10.2,4.9,10.2,10.2V120c8.8-8.5,21-12.7,36.7-12.7c15.1,0,28.9,5.7,41.2,17.2
		c11.8,12.3,17.6,26.2,17.6,41.6c0,22.1-10.4,39.4-31.3,52.1c-9.1,4.6-17.9,6.9-26.3,6.9h-3.2c-15.9,0-30.7-7.4-44.3-22.3
		c-8.4-11.2-12.6-24.3-12.6-39.5V74.8C755.4,69.5,758.8,66.1,765.6,64.6z M777.7,165v2c0,15.2,8,26.5,24,34c4.2,1.2,8,1.8,11.4,1.8
		h2.5c14.8,0,26-8,33.6-23.9c1.2-4.8,1.8-8.5,1.8-11.1v-2.5c0-15.1-8.1-26.5-24.3-34c-5-1.2-8.8-1.8-11.5-1.8h-1.6
		c-14.8,0-26,7.9-33.6,23.6C778.4,157.5,777.7,161.5,777.7,165z"/>
	<path class="st0" d="M941.8,108.4c22.4,0,39.9,10.7,52.3,31.9c4.3,8.4,6.5,17.5,6.5,27.2v2.4c-1.3,7.3-4.9,11-10.9,11h-80.5
		c2.1,7.1,7.9,13.2,17.5,18.4c5.7,2.1,11,3.2,15.9,3.2c5.7,0,12.6-2,20.7-6h3.4c6.7,1.3,10.1,4.8,10.1,10.5v1.2
		c0,8.5-10.7,14.1-31.9,16.9h-3c-20.9,0-37.7-9.8-50.3-29.4c-5.1-9.3-7.6-18.9-7.6-29c0-21.4,10.1-38.4,30.2-51
		C923.8,110.8,933.1,108.4,941.8,108.4z M907.2,158.7h70.4c0-2.6-3-8-8.9-16c-8-7.6-15.9-11.4-23.7-11.4h-4.4
		c-11.8,0-21.4,5.8-29,17.4C908.9,153.3,907.4,156.6,907.2,158.7z"/>
	<path class="st0" d="M1031.9,107.8c7,1.8,10.5,5.2,10.5,10.1v1.7c8.9-7.9,20.5-11.8,34.7-11.8c7.7,0,16,1.9,24.9,5.8
		c3.1,3.2,4.6,6.2,4.6,9.1v0.8c-1.2,7-4.8,10.5-10.9,10.5h-1c-7.4-2.4-12.8-3.6-16.1-3.6h-2.4c-14.5,0-25.1,7.5-31.8,22.6
		c-1.4,3.9-2.2,8.5-2.2,13.8v47.8c0,5.8-3.6,9.3-10.8,10.5h-0.7c-5.9,0-9.5-3.7-10.9-11v-94C1021,111.9,1024.9,107.8,1031.9,107.8z"
		/>
</g>
<path class="st0" d="M111.2,190.9L111.2,190.9c-12.4-4.8-18.5-18.7-13.8-31l37.4-97.2c4.8-12.4,18.7-18.5,31-13.8l0,0
	c12.4,4.8,18.5,18.7,13.8,31l-37.4,97.2C137.5,189.5,123.6,195.6,111.2,190.9z"/>
<path class="st0" d="M155.1,254.3L155.1,254.3c-12.4-4.8-18.5-18.7-13.8-31l63.6-165.1c4.8-12.4,18.7-18.5,31-13.8l0,0
	c12.4,4.8,18.5,18.7,13.8,31l-63.6,165.1C181.3,252.9,167.4,259,155.1,254.3z"/>
<path class="st0" d="M221.6,256.5L221.6,256.5c-12.4-4.8-18.5-18.7-13.8-31l63.6-165.1c4.8-12.4,18.7-18.5,31-13.8l0,0
	c12.4,4.8,18.5,18.7,13.8,31l-63.6,165.1C247.8,255.1,233.9,261.2,221.6,256.5z"/>
</svg>
